# xmcd
# 
# Track frame offsets:
#     150
#     14820
#     27327
#     40920
#     53385
#     70882
#     85542
#     98350
#     110570
#     123050
#     133597
#     145612
#     158385
#     172792
#     184035
# 
# Disc length: 2636
# 
# Revision: 0
# Processed by: cddbd v1.5.2PL0 Copyright (c) Steve Scherf et al.
# Submitted via: BonkEnc v1.0.15
# 
DISCID=ab0a4a0f
DTITLE=Various Artist - The Beginning of Post-War Blues by 15 Blues Giants
DYEAR=0
DGENRE=Blues
TTITLE0=Charle Brown - Driftin' Blues
TTITLE1=Clarence Gatemouth Brown - Guitar In My Hands
TTITLE2=Lowell Fulson - Television Blues
TTITLE3=Wynonie Harris - Good Rockin' Tonight
TTITLE4=John Lee Hooker - Leavin' Chicago
TTITLE5=Lightnin' Hopkins - Lonesome Dog Blues
TTITLE6=B. B. King - I Got The Blues
TTITLE7=Jimmy McCracklin - Jumpin' In The Heart Of Town
TTITLE8=Professor Longhair - She Ain't Got No Hair
TTITLE9=Snooky Pryor - Boogie
TTITLE10=Jesse Thomas - D Double Due Love You
TTITLE11=Big Joe Turner - Still In The Dark
TTITLE12=T-Bone Walker - Whichita Falls Blues
TTITLE13=Little Walter - I Just Keep Loving Her
TTITLE14=Muddy Waters - I Be's Troubled
EXTD=blues and soul records Vol.30
EXTT0=
EXTT1=
EXTT2=
EXTT3=
EXTT4=
EXTT5=
EXTT6=
EXTT7=
EXTT8=
EXTT9=
EXTT10=
EXTT11=
EXTT12=
EXTT13=
EXTT14=
PLAYORDER=
